<svg version="1.1" viewBox="0.0 0.0 671.4278215223097 909.1417322834645" fill="none" stroke="none" stroke-linecap="square" stroke-miterlimit="10" xmlns:xlink="http://www.w3.org/1999/xlink" xmlns="http://www.w3.org/2000/svg"><clipPath id="p.0"><path d="m0 0l671.4278 0l0 909.1417l-671.4278 0l0 -909.1417z" clip-rule="nonzero"/></clipPath><g clip-path="url(#p.0)"><path fill="#000000" fill-opacity="0.0" d="m0 0l671.4278 0l0 909.1417l-671.4278 0z" fill-rule="evenodd"/><path fill="#434343" d="m89.79061 55.132545l102.47694 0l0 0c13.424759 0 24.307678 76.47173 24.307678 170.80441c0 94.33267 -10.882919 170.80441 -24.307678 170.80441l-102.47694 0l0 0c-13.424759 0 -24.30767 -76.47174 -24.30767 -170.80441c0 -94.33267 10.882912 -170.80441 24.30767 -170.80441z" fill-rule="evenodd"/><path fill="#999999" d="m97.56377 126.195366l0 0c0 -24.004814 19.459747 -43.46457 43.46457 -43.46457l0 0c11.527512 0 22.582901 4.5792923 30.734085 12.730476c8.151184 8.151192 12.730484 19.206573 12.730484 30.734093l0 0c0 24.004814 -19.459747 43.46456 -43.46457 43.46456l0 0c-24.004822 0 -43.46457 -19.459747 -43.46457 -43.46456z" fill-rule="evenodd"/><path fill="#000000" d="m133.45802 126.61849q0 -4.0625 0.828125 -6.53125q0.84375 -2.484375 2.484375 -3.828125q1.65625 -1.34375 4.15625 -1.34375q1.84375 0 3.234375 0.75q1.390625 0.734375 2.296875 2.140625q0.90625 1.390625 1.421875 3.40625q0.515625 2.0 0.515625 5.40625q0 4.0312424 -0.828125 6.5156174q-0.828125 2.46875 -2.484375 3.828125q-1.640625 1.34375 -4.15625 1.34375q-3.3125 0 -5.203125 -2.375q-2.265625 -2.859375 -2.265625 -9.312492zm2.890625 0q0 5.6406174 1.3125 7.5156174q1.328125 1.859375 3.265625 1.859375q1.9375 0 3.25 -1.875q1.328125 -1.875 1.328125 -7.4999924q0 -5.65625 -1.328125 -7.515625q-1.3125 -1.859375 -3.28125 -1.859375q-1.9375 0 -3.09375 1.640625q-1.453125 2.09375 -1.453125 7.734375z" fill-rule="nonzero"/><path fill="#999999" d="m97.56377 225.93684l0 0c0 -24.004822 19.459747 -43.46457 43.46457 -43.46457l0 0c11.527512 0 22.582901 4.5792847 30.734085 12.730469c8.151184 8.151184 12.730484 19.206573 12.730484 30.7341l0 0c0 24.004807 -19.459747 43.464554 -43.46457 43.464554l0 0c-24.004822 0 -43.46457 -19.459747 -43.46457 -43.464554z" fill-rule="evenodd"/><path fill="#000000" d="m133.45802 226.35995q0 -4.0625 0.828125 -6.53125q0.84375 -2.484375 2.484375 -3.828125q1.65625 -1.34375 4.15625 -1.34375q1.84375 0 3.234375 0.75q1.390625 0.734375 2.296875 2.140625q0.90625 1.390625 1.421875 3.40625q0.515625 2.0 0.515625 5.40625q0 4.03125 -0.828125 6.515625q-0.828125 2.46875 -2.484375 3.828125q-1.640625 1.34375 -4.15625 1.34375q-3.3125 0 -5.203125 -2.375q-2.265625 -2.859375 -2.265625 -9.3125zm2.890625 0q0 5.640625 1.3125 7.515625q1.328125 1.859375 3.265625 1.859375q1.9375 0 3.25 -1.875q1.328125 -1.875 1.328125 -7.5q0 -5.65625 -1.328125 -7.515625q-1.3125 -1.859375 -3.28125 -1.859375q-1.9375 0 -3.09375 1.640625q-1.453125 2.09375 -1.453125 7.734375z" fill-rule="nonzero"/><path fill="#999999" d="m97.56377 325.677l0 0c0 -24.004822 19.459747 -43.46457 43.46457 -43.46457l0 0c11.527512 0 22.582901 4.5792847 30.734085 12.730469c8.151184 8.151184 12.730484 19.206573 12.730484 30.7341l0 0c0 24.004822 -19.459747 43.46457 -43.46457 43.46457l0 0c-24.004822 0 -43.46457 -19.459747 -43.46457 -43.46457z" fill-rule="evenodd"/><path fill="#000000" d="m133.45802 326.10013q0 -4.0625 0.828125 -6.53125q0.84375 -2.484375 2.484375 -3.828125q1.65625 -1.34375 4.15625 -1.34375q1.84375 0 3.234375 0.75q1.390625 0.734375 2.296875 2.140625q0.90625 1.390625 1.421875 3.40625q0.515625 2.0 0.515625 5.40625q0 4.03125 -0.828125 6.515625q-0.828125 2.46875 -2.484375 3.828125q-1.640625 1.34375 -4.15625 1.34375q-3.3125 0 -5.203125 -2.375q-2.265625 -2.859375 -2.265625 -9.3125zm2.890625 0q0 5.640625 1.3125 7.515625q1.328125 1.859375 3.265625 1.859375q1.9375 0 3.25 -1.875q1.328125 -1.875 1.328125 -7.5q0 -5.65625 -1.328125 -7.515625q-1.3125 -1.859375 -3.28125 -1.859375q-1.9375 0 -3.09375 1.640625q-1.453125 2.09375 -1.453125 7.734375z" fill-rule="nonzero"/><path fill="#000000" fill-opacity="0.0" d="m79.28084 396.74146l123.49606 0l0 48.472443l-123.49606 0z" fill-rule="evenodd"/><path fill="#000000" d="m120.23981 426.8127q0.375 0.375 -0.375 0.375q-1.875 1.875 -3.84375 3.09375l-1.21875 -1.6875q2.4375 -1.3125 3.9375 -3.09375l1.5 1.3125zm3.5625 2.34375q0 1.5 -1.5 1.5l-1.21875 0l-0.46875 -1.78125l0.9375 0q0.375 0 0.375 -0.375l0 -3.5625l-6.375 0l0 -1.78125l14.15625 0l0 1.78125l-5.90625 0l0 4.21875zm1.875 -3.5625q2.0625 1.6875 3.9375 2.625l-1.03125 1.6875q-1.875 -0.84375 -4.125 -3.09375l1.21875 -1.21875zm-18.0 -1.6875q3.375 -3.9375 3.84375 -7.6875l-3.09375 0l0 -1.78125l3.09375 0l0 -4.875l1.78125 0q0.75 0.09375 0.09375 0.5625l0 4.3125l2.53125 0l0 1.78125l-2.53125 0l0 2.34375q1.40625 0.75 2.71875 2.15625l-1.03125 1.78125q-0.84375 -0.9375 -1.6875 -1.59375l0 10.125l-1.875 0l0 -9.375q-0.84375 2.0625 -2.625 3.84375l-1.21875 -1.59375zm20.25 -1.96875l-10.59375 0l0 -1.78125l10.59375 0l0 1.78125zm-7.78125 -4.59375l0 -2.4375l-1.875 0l0 2.4375l1.875 0zm3.46875 0l0 -2.4375l-1.875 0l0 2.4375l1.875 0zm1.59375 0l1.875 0l0 -2.4375l-1.875 0l0 2.4375zm3.46875 -3.9375l0 5.4375l-12.0 0l0 -5.4375l3.46875 0l0 -1.3125l-4.03125 0l0 -1.78125l13.125 0l0 1.78125l-4.03125 0l0 1.3125l3.46875 0zm-6.9375 0l1.875 0l0 -1.3125l-1.875 0l0 1.3125zm26.53125 7.21875q1.875 3.09375 5.15625 5.4375l-1.59375 1.78125q-3.09375 -2.53125 -5.25 -6.09375l1.6875 -1.125zm-4.03125 7.78125q0 1.6875 -1.59375 1.6875l-2.625 0l-0.375 -2.0625l2.0625 0q0.375 0 0.375 -0.375l0 -8.8125l-9.1875 0l0 -2.0625l20.15625 0l0 2.0625l-8.8125 0l0 9.5625zm-8.25 -15.09375l0 -2.0625l14.25 0l0 2.0625l-14.25 0zm-3.09375 13.125q2.625 -1.875 4.59375 -5.71875l1.875 1.03125q0.75 0.46875 -0.28125 0.65625q-1.59375 3.375 -4.6875 5.8125l-1.5 -1.78125z" fill-rule="nonzero"/><path fill="#000000" d="m162.68903 420.3127q0 -3.046875 0.625 -4.90625q0.625 -1.859375 1.859375 -2.859375q1.234375 -1.015625 3.109375 -1.015625q1.390625 0 2.421875 0.5625q1.046875 0.546875 1.71875 1.59375q0.6875 1.046875 1.078125 2.5625q0.390625 1.5 0.390625 4.0625q0 3.015625 -0.625 4.875q-0.625 1.859375 -1.859375 2.875q-1.234375 1.015625 -3.125 1.015625q-2.484375 0 -3.890625 -1.78125q-1.703125 -2.15625 -1.703125 -6.984375zm2.171875 0q0 4.21875 0.984375 5.625q0.984375 1.40625 2.4375 1.40625q1.453125 0 2.4375 -1.40625q1.0 -1.40625 1.0 -5.625q0 -4.25 -1.0 -5.640625q-0.984375 -1.390625 -2.453125 -1.390625q-1.453125 0 -2.328125 1.21875q-1.078125 1.578125 -1.078125 5.8125z" fill-rule="nonzero"/><path fill="#434343" d="m284.47565 55.132545l102.47696 0l0 0c13.424744 0 24.307648 76.47173 24.307648 170.80441c0 94.33267 -10.882904 170.80441 -24.307648 170.80441l-102.47696 0l0 0c-13.424744 0 -24.307678 -76.47174 -24.307678 -170.80441c0 -94.33267 10.882935 -170.80441 24.307678 -170.80441z" fill-rule="evenodd"/><path fill="#999999" d="m292.2488 126.195366l0 0c0 -24.004814 19.459747 -43.46457 43.46457 -43.46457l0 0c11.527527 0 22.582886 4.5792923 30.7341 12.730476c8.151184 8.151192 12.730469 19.206573 12.730469 30.734093l0 0c0 24.004814 -19.459747 43.46456 -43.46457 43.46456l0 0c-24.004822 0 -43.46457 -19.459747 -43.46457 -43.46456z" fill-rule="evenodd"/><path fill="#000000" d="m328.14307 126.61849q0 -4.0625 0.828125 -6.53125q0.84375 -2.484375 2.484375 -3.828125q1.65625 -1.34375 4.15625 -1.34375q1.84375 0 3.234375 0.75q1.390625 0.734375 2.296875 2.140625q0.90625 1.390625 1.421875 3.40625q0.515625 2.0 0.515625 5.40625q0 4.0312424 -0.828125 6.5156174q-0.828125 2.46875 -2.484375 3.828125q-1.640625 1.34375 -4.15625 1.34375q-3.3125 0 -5.203125 -2.375q-2.265625 -2.859375 -2.265625 -9.312492zm2.890625 0q0 5.6406174 1.3125 7.5156174q1.328125 1.859375 3.265625 1.859375q1.9375 0 3.25 -1.875q1.328125 -1.875 1.328125 -7.4999924q0 -5.65625 -1.328125 -7.515625q-1.3125 -1.859375 -3.28125 -1.859375q-1.9375 0 -3.09375 1.640625q-1.453125 2.09375 -1.453125 7.734375z" fill-rule="nonzero"/><path fill="#93c47d" d="m292.2488 225.93684l0 0c0 -24.004822 19.459747 -43.46457 43.46457 -43.46457l0 0c11.527527 0 22.582886 4.5792847 30.7341 12.730469c8.151184 8.151184 12.730469 19.206573 12.730469 30.7341l0 0c0 24.004807 -19.459747 43.464554 -43.46457 43.464554l0 0c-24.004822 0 -43.46457 -19.459747 -43.46457 -43.464554z" fill-rule="evenodd"/><path fill="#000000" d="m338.73682 237.65683l-2.8125 0l0 -17.921875q-1.015625 0.96875 -2.671875 1.9375q-1.640625 0.96875 -2.953125 1.453125l0 -2.71875q2.359375 -1.109375 4.125 -2.6875q1.765625 -1.578125 2.5 -3.0625l1.8125 0l0 23.0z" fill-rule="nonzero"/><path fill="#93c47d" d="m292.2488 325.677l0 0c0 -24.004822 19.459747 -43.46457 43.46457 -43.46457l0 0c11.527527 0 22.582886 4.5792847 30.7341 12.730469c8.151184 8.151184 12.730469 19.206573 12.730469 30.7341l0 0c0 24.004822 -19.459747 43.46457 -43.46457 43.46457l0 0c-24.004822 0 -43.46457 -19.459747 -43.46457 -43.46457z" fill-rule="evenodd"/><path fill="#000000" d="m338.73682 337.397l-2.8125 0l0 -17.921875q-1.015625 0.96875 -2.671875 1.9375q-1.640625 0.96875 -2.953125 1.453125l0 -2.71875q2.359375 -1.109375 4.125 -2.6875q1.765625 -1.578125 2.5 -3.0625l1.8125 0l0 23.0z" fill-rule="nonzero"/><path fill="#000000" fill-opacity="0.0" d="m273.96588 396.74146l123.49606 0l0 48.472443l-123.49606 0z" fill-rule="evenodd"/><path fill="#000000" d="m314.92484 426.8127q0.375 0.375 -0.375 0.375q-1.875 1.875 -3.84375 3.09375l-1.21875 -1.6875q2.4375 -1.3125 3.9375 -3.09375l1.5 1.3125zm3.5625 2.34375q0 1.5 -1.5 1.5l-1.21875 0l-0.46875 -1.78125l0.9375 0q0.375 0 0.375 -0.375l0 -3.5625l-6.375 0l0 -1.78125l14.15625 0l0 1.78125l-5.90625 0l0 4.21875zm1.875 -3.5625q2.0625 1.6875 3.9375 2.625l-1.03125 1.6875q-1.875 -0.84375 -4.125 -3.09375l1.21875 -1.21875zm-18.0 -1.6875q3.375 -3.9375 3.84375 -7.6875l-3.09375 0l0 -1.78125l3.09375 0l0 -4.875l1.78125 0q0.75 0.09375 0.09375 0.5625l0 4.3125l2.53125 0l0 1.78125l-2.53125 0l0 2.34375q1.40625 0.75 2.71875 2.15625l-1.03125 1.78125q-0.84375 -0.9375 -1.6875 -1.59375l0 10.125l-1.875 0l0 -9.375q-0.84375 2.0625 -2.625 3.84375l-1.21875 -1.59375zm20.25 -1.96875l-10.59375 0l0 -1.78125l10.59375 0l0 1.78125zm-7.78125 -4.59375l0 -2.4375l-1.875 0l0 2.4375l1.875 0zm3.46875 0l0 -2.4375l-1.875 0l0 2.4375l1.875 0zm1.59375 0l1.875 0l0 -2.4375l-1.875 0l0 2.4375zm3.46875 -3.9375l0 5.4375l-12.0 0l0 -5.4375l3.46875 0l0 -1.3125l-4.03125 0l0 -1.78125l13.125 0l0 1.78125l-4.03125 0l0 1.3125l3.46875 0zm-6.9375 0l1.875 0l0 -1.3125l-1.875 0l0 1.3125zm26.53125 7.21875q1.875 3.09375 5.15625 5.4375l-1.59375 1.78125q-3.09375 -2.53125 -5.25 -6.09375l1.6875 -1.125zm-4.03125 7.78125q0 1.6875 -1.59375 1.6875l-2.625 0l-0.375 -2.0625l2.0625 0q0.375 0 0.375 -0.375l0 -8.8125l-9.1875 0l0 -2.0625l20.15625 0l0 2.0625l-8.8125 0l0 9.5625zm-8.25 -15.09375l0 -2.0625l14.25 0l0 2.0625l-14.25 0zm-3.09375 13.125q2.625 -1.875 4.59375 -5.71875l1.875 1.03125q0.75 0.46875 -0.28125 0.65625q-1.59375 3.375 -4.6875 5.8125l-1.5 -1.78125z" fill-rule="nonzero"/><path fill="#000000" d="m365.31155 428.78146l-2.109375 0l0 -13.4375q-0.75 0.71875 -2.0 1.453125q-1.234375 0.71875 -2.21875 1.078125l0 -2.03125q1.78125 -0.828125 3.09375 -2.015625q1.328125 -1.1875 1.875 -2.296875l1.359375 0l0 17.25z" fill-rule="nonzero"/><path fill="#434343" d="m479.16068 55.132545l102.47696 0l0 0c13.424744 0 24.307678 76.47173 24.307678 170.80441c0 94.33267 -10.882935 170.80441 -24.307678 170.80441l-102.47696 0l0 0c-13.424744 0 -24.307648 -76.47174 -24.307648 -170.80441c0 -94.33267 10.882904 -170.80441 24.307648 -170.80441z" fill-rule="evenodd"/><path fill="#93c47d" d="m486.93384 126.195366l0 0c0 -24.004814 19.459747 -43.46457 43.4646 -43.46457l0 0c11.527466 0 22.582886 4.5792923 30.73407 12.730476c8.151184 8.151192 12.730469 19.206573 12.730469 30.734093l0 0c0 24.004814 -19.459717 43.46456 -43.46454 43.46456l0 0c-24.004852 0 -43.4646 -19.459747 -43.4646 -43.46456z" fill-rule="evenodd"/><path fill="#000000" d="m533.4219 137.91536l-2.8125 0l0 -17.921867q-1.015625 0.96875 -2.671875 1.9375q-1.640625 0.96875 -2.953125 1.453125l0 -2.71875q2.359375 -1.109375 4.125 -2.6875q1.765625 -1.578125 2.5 -3.0625l1.8125 0l0 22.999992z" fill-rule="nonzero"/><path fill="#999999" d="m486.93384 225.93684l0 0c0 -24.004822 19.459747 -43.46457 43.4646 -43.46457l0 0c11.527466 0 22.582886 4.5792847 30.73407 12.730469c8.151184 8.151184 12.730469 19.206573 12.730469 30.7341l0 0c0 24.004807 -19.459717 43.464554 -43.46454 43.464554l0 0c-24.004852 0 -43.4646 -19.459747 -43.4646 -43.464554z" fill-rule="evenodd"/><path fill="#000000" d="m522.8281 226.35995q0 -4.0625 0.828125 -6.53125q0.84375 -2.484375 2.484375 -3.828125q1.65625 -1.34375 4.15625 -1.34375q1.84375 0 3.234375 0.75q1.390625 0.734375 2.296875 2.140625q0.90625 1.390625 1.421875 3.40625q0.515625 2.0 0.515625 5.40625q0 4.03125 -0.828125 6.515625q-0.828125 2.46875 -2.484375 3.828125q-1.640625 1.34375 -4.15625 1.34375q-3.3125 0 -5.203125 -2.375q-2.265625 -2.859375 -2.265625 -9.3125zm2.890625 0q0 5.640625 1.3125 7.515625q1.328125 1.859375 3.265625 1.859375q1.9375 0 3.25 -1.875q1.328125 -1.875 1.328125 -7.5q0 -5.65625 -1.328125 -7.515625q-1.3125 -1.859375 -3.28125 -1.859375q-1.9375 0 -3.09375 1.640625q-1.453125 2.09375 -1.453125 7.734375z" fill-rule="nonzero"/><path fill="#93c47d" d="m486.93384 325.677l0 0c0 -24.004822 19.459747 -43.46457 43.4646 -43.46457l0 0c11.527466 0 22.582886 4.5792847 30.73407 12.730469c8.151184 8.151184 12.730469 19.206573 12.730469 30.7341l0 0c0 24.004822 -19.459717 43.46457 -43.46454 43.46457l0 0c-24.004852 0 -43.4646 -19.459747 -43.4646 -43.46457z" fill-rule="evenodd"/><path fill="#000000" d="m533.4219 337.397l-2.8125 0l0 -17.921875q-1.015625 0.96875 -2.671875 1.9375q-1.640625 0.96875 -2.953125 1.453125l0 -2.71875q2.359375 -1.109375 4.125 -2.6875q1.765625 -1.578125 2.5 -3.0625l1.8125 0l0 23.0z" fill-rule="nonzero"/><path fill="#000000" fill-opacity="0.0" d="m468.6509 396.74146l123.49606 0l0 48.472443l-123.49606 0z" fill-rule="evenodd"/><path fill="#000000" d="m509.6099 426.8127q0.375 0.375 -0.375 0.375q-1.875 1.875 -3.84375 3.09375l-1.21875 -1.6875q2.4375 -1.3125 3.9375 -3.09375l1.5 1.3125zm3.5624695 2.34375q0 1.5 -1.4999695 1.5l-1.21875 0l-0.46875 -1.78125l0.9375 0q0.375 0 0.375 -0.375l0 -3.5625l-6.375 0l0 -1.78125l14.1562195 0l0 1.78125l-5.90625 0l0 4.21875zm1.875 -3.5625q2.0625 1.6875 3.9375 2.625l-1.03125 1.6875q-1.875 -0.84375 -4.125 -3.09375l1.21875 -1.21875zm-17.99997 -1.6875q3.375 -3.9375 3.84375 -7.6875l-3.09375 0l0 -1.78125l3.09375 0l0 -4.875l1.78125 0q0.75 0.09375 0.09375 0.5625l0 4.3125l2.53125 0l0 1.78125l-2.53125 0l0 2.34375q1.40625 0.75 2.71875 2.15625l-1.03125 1.78125q-0.84375 -0.9375 -1.6875 -1.59375l0 10.125l-1.875 0l0 -9.375q-0.84375 2.0625 -2.625 3.84375l-1.21875 -1.59375zm20.24997 -1.96875l-10.5937195 0l0 -1.78125l10.5937195 0l0 1.78125zm-7.7812195 -4.59375l0 -2.4375l-1.875 0l0 2.4375l1.875 0zm3.4687195 0l0 -2.4375l-1.8749695 0l0 2.4375l1.8749695 0zm1.59375 0l1.875 0l0 -2.4375l-1.875 0l0 2.4375zm3.46875 -3.9375l0 5.4375l-11.9999695 0l0 -5.4375l3.46875 0l0 -1.3125l-4.03125 0l0 -1.78125l13.1249695 0l0 1.78125l-4.03125 0l0 1.3125l3.46875 0zm-6.9374695 0l1.8749695 0l0 -1.3125l-1.8749695 0l0 1.3125zm26.53122 7.21875q1.875 3.09375 5.15625 5.4375l-1.59375 1.78125q-3.09375 -2.53125 -5.25 -6.09375l1.6875 -1.125zm-4.03125 7.78125q0 1.6875 -1.59375 1.6875l-2.625 0l-0.375 -2.0625l2.0625 0q0.375 0 0.375 -0.375l0 -8.8125l-9.1875 0l0 -2.0625l20.15625 0l0 2.0625l-8.8125 0l0 9.5625zm-8.25 -15.09375l0 -2.0625l14.25 0l0 2.0625l-14.25 0zm-3.09375 13.125q2.625 -1.875 4.59375 -5.71875l1.875 1.03125q0.75 0.46875 -0.28125 0.65625q-1.59375 3.375 -4.6875 5.8125l-1.5 -1.78125z" fill-rule="nonzero"/><path fill="#000000" d="m563.1372 426.7502l0 2.03125l-11.34375 0q-0.03125 -0.765625 0.234375 -1.46875q0.4375 -1.15625 1.390625 -2.28125q0.953125 -1.125 2.765625 -2.609375q2.796875 -2.296875 3.78125 -3.625q0.984375 -1.34375 0.984375 -2.546875q0 -1.25 -0.90625 -2.109375q-0.890625 -0.859375 -2.328125 -0.859375q-1.515625 0 -2.4375 0.921875q-0.90625 0.90625 -0.921875 2.515625l-2.171875 -0.21875q0.21875 -2.421875 1.671875 -3.6875q1.453125 -1.28125 3.90625 -1.28125q2.46875 0 3.90625 1.375q1.453125 1.359375 1.453125 3.390625q0 1.03125 -0.421875 2.03125q-0.421875 1.0 -1.40625 2.109375q-0.96875 1.09375 -3.25 3.015625q-1.890625 1.59375 -2.4375 2.15625q-0.53125 0.5625 -0.890625 1.140625l8.421875 0z" fill-rule="nonzero"/><path fill="#434343" d="m89.79061 472.81497l102.47694 0l0 0c13.424759 0 24.307678 76.47171 24.307678 170.80441c0 94.33264 -10.882919 170.80438 -24.307678 170.80438l-102.47694 0l0 0c-13.424759 0 -24.30767 -76.47174 -24.30767 -170.80438c0 -94.3327 10.882912 -170.80441 24.30767 -170.80441z" fill-rule="evenodd"/><path fill="#999999" d="m97.56377 543.8778l0 0c0 -24.004822 19.459747 -43.4646 43.46457 -43.4646l0 0c11.527512 0 22.582901 4.5792847 30.734085 12.730469c8.151184 8.151184 12.730484 19.206604 12.730484 30.73413l0 0c0 24.004822 -19.459747 43.46454 -43.46457 43.46454l0 0c-24.004822 0 -43.46457 -19.459717 -43.46457 -43.46454z" fill-rule="evenodd"/><path fill="#000000" d="m133.45802 544.3009q0 -4.0625 0.828125 -6.53125q0.84375 -2.484375 2.484375 -3.828125q1.65625 -1.34375 4.15625 -1.34375q1.84375 0 3.234375 0.75q1.390625 0.734375 2.296875 2.140625q0.90625 1.390625 1.421875 3.40625q0.515625 2.0 0.515625 5.40625q0 4.03125 -0.828125 6.515625q-0.828125 2.46875 -2.484375 3.828125q-1.640625 1.34375 -4.15625 1.34375q-3.3125 0 -5.203125 -2.375q-2.265625 -2.859375 -2.265625 -9.3125zm2.890625 0q0 5.640625 1.3125 7.515625q1.328125 1.859375 3.265625 1.859375q1.9375 0 3.25 -1.875q1.328125 -1.875 1.328125 -7.5q0 -5.65625 -1.328125 -7.515625q-1.3125 -1.859375 -3.28125 -1.859375q-1.9375 0 -3.09375 1.640625q-1.453125 2.09375 -1.453125 7.734375z" fill-rule="nonzero"/><path fill="#999999" d="m97.56377 643.61926l0 0c0 -24.004822 19.459747 -43.4646 43.46457 -43.4646l0 0c11.527512 0 22.582901 4.5792847 30.734085 12.730469c8.151184 8.151245 12.730484 19.206604 12.730484 30.73413l0 0c0 24.004822 -19.459747 43.46454 -43.46457 43.46454l0 0c-24.004822 0 -43.46457 -19.459717 -43.46457 -43.46454z" fill-rule="evenodd"/><path fill="#000000" d="m133.45802 644.04236q0 -4.0625 0.828125 -6.53125q0.84375 -2.484375 2.484375 -3.828125q1.65625 -1.34375 4.15625 -1.34375q1.84375 0 3.234375 0.75q1.390625 0.734375 2.296875 2.140625q0.90625 1.390625 1.421875 3.40625q0.515625 2.0 0.515625 5.40625q0 4.03125 -0.828125 6.515625q-0.828125 2.46875 -2.484375 3.828125q-1.640625 1.34375 -4.15625 1.34375q-3.3125 0 -5.203125 -2.375q-2.265625 -2.859375 -2.265625 -9.3125zm2.890625 0q0 5.640625 1.3125 7.515625q1.328125 1.859375 3.265625 1.859375q1.9375 0 3.25 -1.875q1.328125 -1.875 1.328125 -7.5q0 -5.65625 -1.328125 -7.515625q-1.3125 -1.859375 -3.28125 -1.859375q-1.9375 0 -3.09375 1.640625q-1.453125 2.09375 -1.453125 7.734375z" fill-rule="nonzero"/><path fill="#93c47d" d="m97.56377 743.35944l0 0c0 -24.004822 19.459747 -43.4646 43.46457 -43.4646l0 0c11.527512 0 22.582901 4.5792847 30.734085 12.730469c8.151184 8.151184 12.730484 19.206604 12.730484 30.73413l0 0c0 24.00476 -19.459747 43.46454 -43.46457 43.46454l0 0c-24.004822 0 -43.46457 -19.459778 -43.46457 -43.46454z" fill-rule="evenodd"/><path fill="#000000" d="m144.05177 755.0794l-2.8125 0l0 -17.921875q-1.015625 0.96875 -2.671875 1.9375q-1.640625 0.96875 -2.953125 1.453125l0 -2.71875q2.359375 -1.109375 4.125 -2.6875q1.765625 -1.578125 2.5 -3.0625l1.8125 0l0 23.0z" fill-rule="nonzero"/><path fill="#000000" fill-opacity="0.0" d="m79.28084 814.4239l123.49606 0l0 48.472412l-123.49606 0z" fill-rule="evenodd"/><path fill="#000000" d="m97.17731 845.2451q-0.09375 0.65625 -0.46875 0.28125l-0.84375 -2.25q1.875 -0.375 3.375 -0.75l0 -5.25l-2.15625 0l0 -1.78125l2.15625 0l0 -4.3125l-2.8125 0l0 -1.78125l7.59375 0l0 1.78125l-2.90625 0l0 4.3125l2.34375 0l0 1.78125l-2.34375 0l0 4.78125l2.25 -0.65625l0.46875 1.6875q-2.53125 1.03125 -6.65625 2.15625zm19.875 -11.90625l-5.71875 0l0 1.125q0.28125 1.40625 1.21875 3.46875q1.5 -1.40625 3.0 -3.28125l1.6875 1.6875q0.09375 0.46875 -0.46875 0.28125q-1.6875 1.5 -3.375 2.90625q1.6875 3.09375 4.3125 4.875l-1.59375 1.78125q-2.90625 -2.53125 -4.78125 -7.03125l0 7.6875q0 1.5 -1.5 1.5l-2.4375 0l-0.375 -2.0625l2.0625 0q0.375 0 0.375 -0.375l0 -4.21875q-2.0625 2.0625 -4.5 3.5625q-0.1875 0.65625 -0.375 0.46875l-1.3125 -2.15625q3.46875 -1.6875 6.1875 -4.03125l0 -6.1875l-5.34375 0l0 -1.78125l5.34375 0l0 -4.3125l1.78125 0q0.75 0.09375 0.09375 0.5625l0 3.75l5.71875 0l0 1.78125zm-3.0 -1.96875q-1.03125 -1.21875 -2.34375 -2.0625l1.5 -1.21875q1.21875 0.65625 2.4375 1.96875l-1.59375 1.3125zm-7.59375 8.4375q-0.65625 -1.96875 -2.0625 -3.84375l1.875 -1.03125q1.78125 2.0625 2.25 3.84375l-2.0625 1.03125zm18.46875 -4.21875l0 5.34375q0 0.75 0.65625 0.75l1.59375 0q1.5 0 1.78125 -2.90625l1.875 0.75q-0.5625 3.9375 -3.0 3.9375l-3.1875 0q-1.59375 0 -1.59375 -1.59375l0 -5.90625l-2.4375 0.5625l-0.375 -2.0625l2.8125 -0.5625l0 -6.1875l1.78125 0q0.9375 0.1875 0.09375 0.75l0 5.0625l4.875 -1.21875l0.46875 1.96875l-5.34375 1.3125zm13.21875 8.4375q0.46875 -7.59375 0.46875 -12.84375l-3.5625 0q0 8.71875 -1.3125 11.25q-2.0625 4.03125 -7.3125 5.8125l-0.9375 -2.0625q5.15625 -1.6875 6.5625 -5.0625q1.03125 -2.4375 1.03125 -9.9375l-3.65625 0l0 -2.0625l11.25 0q0 6.9375 -0.5625 15.75q-0.1875 3.09375 -2.8125 3.09375l-2.53125 0l-0.1875 -2.0625l2.25 0q1.21875 0 1.3125 -1.875zm20.53125 -8.25q0.09375 -1.78125 -1.03125 -1.78125q-1.59375 0 -6.1875 4.59375l0 9.375l-1.875 0l0 -7.6875l-4.125 5.15625l-1.5 -1.5l3.75 -4.40625q1.03125 -1.3125 1.875 -2.71875l0 -2.25l-4.125 1.40625l-0.5625 -1.96875l4.6875 -1.21875l0 -5.53125l1.6875 0q0.84375 0.1875 0.1875 0.75l0 4.21875l1.03125 0.5625q0.84375 0.375 -0.1875 0.84375l-0.84375 1.78125l0 0.65625q4.40625 -4.125 6.65625 -4.125q2.8125 0 2.53125 3.75l-0.46875 7.21875q-0.09375 1.5 1.125 1.5q1.21875 0 1.78125 -0.65625q0.84375 -1.03125 1.40625 -2.4375l1.59375 1.3125q-0.9375 1.78125 -1.78125 2.625q-1.21875 1.21875 -2.8125 1.21875q-3.46875 0 -3.28125 -3.5625l0.46875 -7.125z" fill-rule="nonzero"/><path fill="#000000" d="m182.62653 846.46387l-2.109375 0l0 -13.4375q-0.75 0.71875 -2.0 1.453125q-1.234375 0.71875 -2.21875 1.078125l0 -2.03125q1.78125 -0.828125 3.09375 -2.015625q1.328125 -1.1875 1.875 -2.296875l1.359375 0l0 17.25z" fill-rule="nonzero"/><path fill="#434343" d="m284.47565 472.81497l102.47696 0l0 0c13.424744 0 24.307648 76.47171 24.307648 170.80441c0 94.33264 -10.882904 170.80438 -24.307648 170.80438l-102.47696 0l0 0c-13.424744 0 -24.307678 -76.47174 -24.307678 -170.80438c0 -94.3327 10.882935 -170.80441 24.307678 -170.80441z" fill-rule="evenodd"/><path fill="#999999" d="m292.2488 543.8778l0 0c0 -24.004822 19.459747 -43.4646 43.46457 -43.4646l0 0c11.527527 0 22.582886 4.5792847 30.7341 12.730469c8.151184 8.151184 12.730469 19.206604 12.730469 30.73413l0 0c0 24.004822 -19.459747 43.46454 -43.46457 43.46454l0 0c-24.004822 0 -43.46457 -19.459717 -43.46457 -43.46454z" fill-rule="evenodd"/><path fill="#000000" d="m328.14307 544.3009q0 -4.0625 0.828125 -6.53125q0.84375 -2.484375 2.484375 -3.828125q1.65625 -1.34375 4.15625 -1.34375q1.84375 0 3.234375 0.75q1.390625 0.734375 2.296875 2.140625q0.90625 1.390625 1.421875 3.40625q0.515625 2.0 0.515625 5.40625q0 4.03125 -0.828125 6.515625q-0.828125 2.46875 -2.484375 3.828125q-1.640625 1.34375 -4.15625 1.34375q-3.3125 0 -5.203125 -2.375q-2.265625 -2.859375 -2.265625 -9.3125zm2.890625 0q0 5.640625 1.3125 7.515625q1.328125 1.859375 3.265625 1.859375q1.9375 0 3.25 -1.875q1.328125 -1.875 1.328125 -7.5q0 -5.65625 -1.328125 -7.515625q-1.3125 -1.859375 -3.28125 -1.859375q-1.9375 0 -3.09375 1.640625q-1.453125 2.09375 -1.453125 7.734375z" fill-rule="nonzero"/><path fill="#93c47d" d="m292.2488 643.61926l0 0c0 -24.004822 19.459747 -43.4646 43.46457 -43.4646l0 0c11.527527 0 22.582886 4.5792847 30.7341 12.730469c8.151184 8.151245 12.730469 19.206604 12.730469 30.73413l0 0c0 24.004822 -19.459747 43.46454 -43.46457 43.46454l0 0c-24.004822 0 -43.46457 -19.459717 -43.46457 -43.46454z" fill-rule="evenodd"/><path fill="#000000" d="m338.73682 655.33923l-2.8125 0l0 -17.921875q-1.015625 0.96875 -2.671875 1.9375q-1.640625 0.96875 -2.953125 1.453125l0 -2.71875q2.359375 -1.109375 4.125 -2.6875q1.765625 -1.578125 2.5 -3.0625l1.8125 0l0 23.0z" fill-rule="nonzero"/><path fill="#999999" d="m292.2488 743.35944l0 0c0 -24.004822 19.459747 -43.4646 43.46457 -43.4646l0 0c11.527527 0 22.582886 4.5792847 30.7341 12.730469c8.151184 8.151184 12.730469 19.206604 12.730469 30.73413l0 0c0 24.00476 -19.459747 43.46454 -43.46457 43.46454l0 0c-24.004822 0 -43.46457 -19.459778 -43.46457 -43.46454z" fill-rule="evenodd"/><path fill="#000000" d="m328.14307 743.78253q0 -4.0625 0.828125 -6.53125q0.84375 -2.484375 2.484375 -3.828125q1.65625 -1.34375 4.15625 -1.34375q1.84375 0 3.234375 0.75q1.390625 0.734375 2.296875 2.140625q0.90625 1.390625 1.421875 3.40625q0.515625 2.0 0.515625 5.40625q0 4.03125 -0.828125 6.515625q-0.828125 2.46875 -2.484375 3.828125q-1.640625 1.34375 -4.15625 1.34375q-3.3125 0 -5.203125 -2.375q-2.265625 -2.859375 -2.265625 -9.3125zm2.890625 0q0 5.640625 1.3125 7.515625q1.328125 1.859375 3.265625 1.859375q1.9375 0 3.25 -1.875q1.328125 -1.875 1.328125 -7.5q0 -5.65625 -1.328125 -7.515625q-1.3125 -1.859375 -3.28125 -1.859375q-1.9375 0 -3.09375 1.640625q-1.453125 2.09375 -1.453125 7.734375z" fill-rule="nonzero"/><path fill="#000000" fill-opacity="0.0" d="m273.96588 814.4239l123.49606 0l0 48.472412l-123.49606 0z" fill-rule="evenodd"/><path fill="#000000" d="m291.86234 845.2451q-0.09375 0.65625 -0.46875 0.28125l-0.84375 -2.25q1.875 -0.375 3.375 -0.75l0 -5.25l-2.15625 0l0 -1.78125l2.15625 0l0 -4.3125l-2.8125 0l0 -1.78125l7.59375 0l0 1.78125l-2.90625 0l0 4.3125l2.34375 0l0 1.78125l-2.34375 0l0 4.78125l2.25 -0.65625l0.46875 1.6875q-2.53125 1.03125 -6.65625 2.15625zm19.875 -11.90625l-5.71875 0l0 1.125q0.28125 1.40625 1.21875 3.46875q1.5 -1.40625 3.0 -3.28125l1.6875 1.6875q0.09375 0.46875 -0.46875 0.28125q-1.6875 1.5 -3.375 2.90625q1.6875 3.09375 4.3125 4.875l-1.59375 1.78125q-2.90625 -2.53125 -4.78125 -7.03125l0 7.6875q0 1.5 -1.5 1.5l-2.4375 0l-0.375 -2.0625l2.0625 0q0.375 0 0.375 -0.375l0 -4.21875q-2.0625 2.0625 -4.5 3.5625q-0.1875 0.65625 -0.375 0.46875l-1.3125 -2.15625q3.46875 -1.6875 6.1875 -4.03125l0 -6.1875l-5.34375 0l0 -1.78125l5.34375 0l0 -4.3125l1.78125 0q0.75 0.09375 0.09375 0.5625l0 3.75l5.71875 0l0 1.78125zm-3.0 -1.96875q-1.03125 -1.21875 -2.34375 -2.0625l1.5 -1.21875q1.21875 0.65625 2.4375 1.96875l-1.59375 1.3125zm-7.59375 8.4375q-0.65625 -1.96875 -2.0625 -3.84375l1.875 -1.03125q1.78125 2.0625 2.25 3.84375l-2.0625 1.03125zm18.46875 -4.21875l0 5.34375q0 0.75 0.65625 0.75l1.59375 0q1.5 0 1.78125 -2.90625l1.875 0.75q-0.5625 3.9375 -3.0 3.9375l-3.1875 0q-1.59375 0 -1.59375 -1.59375l0 -5.90625l-2.4375 0.5625l-0.375 -2.0625l2.8125 -0.5625l0 -6.1875l1.78125 0q0.9375 0.1875 0.09375 0.75l0 5.0625l4.875 -1.21875l0.46875 1.96875l-5.34375 1.3125zm13.21875 8.4375q0.46875 -7.59375 0.46875 -12.84375l-3.5625 0q0 8.71875 -1.3125 11.25q-2.0625 4.03125 -7.3125 5.8125l-0.9375 -2.0625q5.15625 -1.6875 6.5625 -5.0625q1.03125 -2.4375 1.03125 -9.9375l-3.65625 0l0 -2.0625l11.25 0q0 6.9375 -0.5625 15.75q-0.1875 3.09375 -2.8125 3.09375l-2.53125 0l-0.1875 -2.0625l2.25 0q1.21875 0 1.3125 -1.875zm20.53125 -8.25q0.09375 -1.78125 -1.03125 -1.78125q-1.59375 0 -6.1875 4.59375l0 9.375l-1.875 0l0 -7.6875l-4.125 5.15625l-1.5 -1.5l3.75 -4.40625q1.03125 -1.3125 1.875 -2.71875l0 -2.25l-4.125 1.40625l-0.5625 -1.96875l4.6875 -1.21875l0 -5.53125l1.6875 0q0.84375 0.1875 0.1875 0.75l0 4.21875l1.03125 0.5625q0.84375 0.375 -0.1875 0.84375l-0.84375 1.78125l0 0.65625q4.40625 -4.125 6.65625 -4.125q2.8125 0 2.53125 3.75l-0.46875 7.21875q-0.09375 1.5 1.125 1.5q1.21875 0 1.78125 -0.65625q0.84375 -1.03125 1.40625 -2.4375l1.59375 1.3125q-0.9375 1.78125 -1.78125 2.625q-1.21875 1.21875 -2.8125 1.21875q-3.46875 0 -3.28125 -3.5625l0.46875 -7.125z" fill-rule="nonzero"/><path fill="#000000" d="m380.45218 844.4326l0 2.03125l-11.34375 0q-0.03125 -0.765625 0.234375 -1.46875q0.4375 -1.15625 1.390625 -2.28125q0.953125 -1.125 2.765625 -2.609375q2.796875 -2.296875 3.78125 -3.625q0.984375 -1.34375 0.984375 -2.546875q0 -1.25 -0.90625 -2.109375q-0.890625 -0.859375 -2.328125 -0.859375q-1.515625 0 -2.4375 0.921875q-0.90625 0.90625 -0.921875 2.515625l-2.171875 -0.21875q0.21875 -2.421875 1.671875 -3.6875q1.453125 -1.28125 3.90625 -1.28125q2.46875 0 3.90625 1.375q1.453125 1.359375 1.453125 3.390625q0 1.03125 -0.421875 2.03125q-0.421875 1.0 -1.40625 2.109375q-0.96875 1.09375 -3.25 3.015625q-1.890625 1.59375 -2.4375 2.15625q-0.53125 0.5625 -0.890625 1.140625l8.421875 0z" fill-rule="nonzero"/><path fill="#434343" d="m479.16068 472.81235l102.47696 0l0 0c13.424744 0 24.307678 76.47171 24.307678 170.80441c0 94.33264 -10.882935 170.80438 -24.307678 170.80438l-102.47696 0l0 0c-13.424744 0 -24.307648 -76.47174 -24.307648 -170.80438c0 -94.3327 10.882904 -170.80441 24.307648 -170.80441z" fill-rule="evenodd"/><path fill="#93c47d" d="m486.93384 543.8778l0 0c0 -24.004822 19.459747 -43.4646 43.4646 -43.4646l0 0c11.527466 0 22.582886 4.5792847 30.73407 12.730469c8.151184 8.151184 12.730469 19.206604 12.730469 30.73413l0 0c0 24.004822 -19.459717 43.46454 -43.46454 43.46454l0 0c-24.004852 0 -43.4646 -19.459717 -43.4646 -43.46454z" fill-rule="evenodd"/><path fill="#000000" d="m533.4219 555.5978l-2.8125 0l0 -17.921875q-1.015625 0.96875 -2.671875 1.9375q-1.640625 0.96875 -2.953125 1.453125l0 -2.71875q2.359375 -1.109375 4.125 -2.6875q1.765625 -1.578125 2.5 -3.0625l1.8125 0l0 23.0z" fill-rule="nonzero"/><path fill="#999999" d="m486.93384 643.6179l0 0c0 -24.004822 19.459747 -43.46454 43.4646 -43.46454l0 0c11.527466 0 22.582886 4.5792847 30.73407 12.730469c8.151184 8.151184 12.730469 19.206543 12.730469 30.73407l0 0c0 24.004822 -19.459717 43.4646 -43.46454 43.4646l0 0c-24.004852 0 -43.4646 -19.459778 -43.4646 -43.4646z" fill-rule="evenodd"/><path fill="#000000" d="m522.8281 644.0411q0 -4.0625 0.828125 -6.53125q0.84375 -2.484375 2.484375 -3.828125q1.65625 -1.34375 4.15625 -1.34375q1.84375 0 3.234375 0.75q1.390625 0.734375 2.296875 2.140625q0.90625 1.390625 1.421875 3.40625q0.515625 2.0 0.515625 5.40625q0 4.03125 -0.828125 6.515625q-0.828125 2.46875 -2.484375 3.828125q-1.640625 1.34375 -4.15625 1.34375q-3.3125 0 -5.203125 -2.375q-2.265625 -2.859375 -2.265625 -9.3125zm2.890625 0q0 5.640625 1.3125 7.515625q1.328125 1.859375 3.265625 1.859375q1.9375 0 3.25 -1.875q1.328125 -1.875 1.328125 -7.5q0 -5.65625 -1.328125 -7.515625q-1.3125 -1.859375 -3.28125 -1.859375q-1.9375 0 -3.09375 1.640625q-1.453125 2.09375 -1.453125 7.734375z" fill-rule="nonzero"/><path fill="#999999" d="m486.93384 743.35944l0 0c0 -24.004822 19.459747 -43.4646 43.4646 -43.4646l0 0c11.527466 0 22.582886 4.5792847 30.73407 12.730469c8.151184 8.151184 12.730469 19.206604 12.730469 30.73413l0 0c0 24.00476 -19.459717 43.46454 -43.46454 43.46454l0 0c-24.004852 0 -43.4646 -19.459778 -43.4646 -43.46454z" fill-rule="evenodd"/><path fill="#000000" d="m522.8281 743.78253q0 -4.0625 0.828125 -6.53125q0.84375 -2.484375 2.484375 -3.828125q1.65625 -1.34375 4.15625 -1.34375q1.84375 0 3.234375 0.75q1.390625 0.734375 2.296875 2.140625q0.90625 1.390625 1.421875 3.40625q0.515625 2.0 0.515625 5.40625q0 4.03125 -0.828125 6.515625q-0.828125 2.46875 -2.484375 3.828125q-1.640625 1.34375 -4.15625 1.34375q-3.3125 0 -5.203125 -2.375q-2.265625 -2.859375 -2.265625 -9.3125zm2.890625 0q0 5.640625 1.3125 7.515625q1.328125 1.859375 3.265625 1.859375q1.9375 0 3.25 -1.875q1.328125 -1.875 1.328125 -7.5q0 -5.65625 -1.328125 -7.515625q-1.3125 -1.859375 -3.28125 -1.859375q-1.9375 0 -3.09375 1.640625q-1.453125 2.09375 -1.453125 7.734375z" fill-rule="nonzero"/><path fill="#000000" fill-opacity="0.0" d="m468.6509 814.4239l123.49606 0l0 48.472412l-123.49606 0z" fill-rule="evenodd"/><path fill="#000000" d="m486.5474 845.2451q-0.09375 0.65625 -0.46875 0.28125l-0.84375 -2.25q1.875 -0.375 3.375 -0.75l0 -5.25l-2.15625 0l0 -1.78125l2.15625 0l0 -4.3125l-2.8125 0l0 -1.78125l7.59375 0l0 1.78125l-2.90625 0l0 4.3125l2.34375 0l0 1.78125l-2.34375 0l0 4.78125l2.25 -0.65625l0.46875 1.6875q-2.53125 1.03125 -6.65625 2.15625zm19.875 -11.90625l-5.71875 0l0 1.125q0.28125 1.40625 1.21875 3.46875q1.5 -1.40625 3.0 -3.28125l1.6875 1.6875q0.09375 0.46875 -0.46875 0.28125q-1.6875 1.5 -3.375 2.90625q1.6875 3.09375 4.3125 4.875l-1.59375 1.78125q-2.90625 -2.53125 -4.78125 -7.03125l0 7.6875q0 1.5 -1.5 1.5l-2.4375 0l-0.375 -2.0625l2.0625 0q0.375 0 0.375 -0.375l0 -4.21875q-2.0625 2.0625 -4.5 3.5625q-0.1875 0.65625 -0.375 0.46875l-1.3125 -2.15625q3.46875 -1.6875 6.1875 -4.03125l0 -6.1875l-5.34375 0l0 -1.78125l5.34375 0l0 -4.3125l1.78125 0q0.75 0.09375 0.09375 0.5625l0 3.75l5.71875 0l0 1.78125zm-3.0 -1.96875q-1.03125 -1.21875 -2.34375 -2.0625l1.5 -1.21875q1.21875 0.65625 2.4375 1.96875l-1.59375 1.3125zm-7.59375 8.4375q-0.65625 -1.96875 -2.0625 -3.84375l1.875 -1.03125q1.78125 2.0625 2.25 3.84375l-2.0625 1.03125zm18.46872 -4.21875l0 5.34375q0 0.75 0.65625 0.75l1.59375 0q1.5 0 1.78125 -2.90625l1.875 0.75q-0.5625 3.9375 -3.0 3.9375l-3.1875 0q-1.59375 0 -1.59375 -1.59375l0 -5.90625l-2.4374695 0.5625l-0.375 -2.0625l2.8124695 -0.5625l0 -6.1875l1.78125 0q0.9375 0.1875 0.09375 0.75l0 5.0625l4.875 -1.21875l0.46875 1.96875l-5.34375 1.3125zm13.21875 8.4375q0.46875 -7.59375 0.46875 -12.84375l-3.5625 0q0 8.71875 -1.3125 11.25q-2.0625 4.03125 -7.3125 5.8125l-0.9375 -2.0625q5.15625 -1.6875 6.5625 -5.0625q1.03125 -2.4375 1.03125 -9.9375l-3.65625 0l0 -2.0625l11.25 0q0 6.9375 -0.5625 15.75q-0.1875 3.09375 -2.8125 3.09375l-2.53125 0l-0.1875 -2.0625l2.25 0q1.21875 0 1.3125 -1.875zm20.53125 -8.25q0.09375 -1.78125 -1.03125 -1.78125q-1.59375 0 -6.1875 4.59375l0 9.375l-1.875 0l0 -7.6875l-4.125 5.15625l-1.5 -1.5l3.75 -4.40625q1.03125 -1.3125 1.875 -2.71875l0 -2.25l-4.125 1.40625l-0.5625 -1.96875l4.6875 -1.21875l0 -5.53125l1.6875 0q0.84375 0.1875 0.1875 0.75l0 4.21875l1.03125 0.5625q0.84375 0.375 -0.1875 0.84375l-0.84375 1.78125l0 0.65625q4.40625 -4.125 6.65625 -4.125q2.8125 0 2.53125 3.75l-0.46875 7.21875q-0.09375 1.5 1.125 1.5q1.21875 0 1.78125 -0.65625q0.84375 -1.03125 1.40625 -2.4375l1.59375 1.3125q-0.9375 1.78125 -1.78125 2.625q-1.21875 1.21875 -2.8125 1.21875q-3.46875 0 -3.28125 -3.5625l0.46875 -7.125z" fill-rule="nonzero"/><path fill="#000000" d="m564.0747 841.9326l2.109375 -0.28125q0.359375 1.78125 1.234375 2.578125q0.875 0.796875 2.125 0.796875q1.484375 0 2.5 -1.03125q1.03125 -1.03125 1.03125 -2.5625q0 -1.453125 -0.953125 -2.390625q-0.9375 -0.953125 -2.40625 -0.953125q-0.59375 0 -1.484375 0.234375l0.234375 -1.84375q0.203125 0.015625 0.34375 0.015625q1.34375 0 2.421875 -0.703125q1.078125 -0.703125 1.078125 -2.15625q0 -1.171875 -0.796875 -1.921875q-0.78125 -0.765625 -2.015625 -0.765625q-1.234375 0 -2.0625 0.78125q-0.8125 0.765625 -1.046875 2.3125l-2.109375 -0.375q0.390625 -2.125 1.75 -3.28125q1.375 -1.171875 3.421875 -1.171875q1.40625 0 2.578125 0.609375q1.1875 0.59375 1.8125 1.640625q0.640625 1.046875 0.640625 2.21875q0 1.109375 -0.609375 2.03125q-0.59375 0.90625 -1.765625 1.4375q1.53125 0.359375 2.375 1.46875q0.84375 1.109375 0.84375 2.765625q0 2.25 -1.640625 3.828125q-1.640625 1.5625 -4.15625 1.5625q-2.265625 0 -3.765625 -1.34375q-1.484375 -1.359375 -1.6875 -3.5z" fill-rule="nonzero"/></g></svg>
